<svg width="734" height="640" viewBox="0 0 734 640" fill="none" xmlns="http://www.w3.org/2000/svg" xmlns:xlink="http://www.w3.org/1999/xlink">
    <rect width="734" height="640" fill="url(#pattern0)"/>
    <defs>
        <pattern id="pattern0" patternContentUnits="objectBoundingBox" width="1" height="1">
            <use xlink:href="#image0" transform="translate(-0.00408719) scale(0.0013624 0.0015625)"/>
        </pattern>
        <image id="image0" width="740" height="640" xlink:href="img/home.png"/>
    </defs>
    <path d="M220 530.7L440.8 538.7L510 525V546.7L441.5 566.4L220 555.4V530.7Z" fill="#3595F6" fill-opacity="0.75"/>
    <path d="M221 529.7V504.7L441.3 508L511 504.7V524.7L441.7 537.7L221 529.7Z" fill="#3595F6" fill-opacity="0.75"/>
    <path d="M221 503.7V478.7H442H511V501.7L443 508.7L221 503.7Z" fill="#3595F6" fill-opacity="0.75"/>
    <path d="M221 479.7V454.7L442.3 451L510 457.7V479.7H442" fill="#3595F6" fill-opacity="0.75"/>
    <path d="M221 453.7V427.7L442.5 424.4L511 435.4V456.7L442 450L221 453.7Z" fill="#3595F6" fill-opacity="0.75"/>
    <path d="M220 426.7V403L441 390.7L512 413.7V435L441 422.7L220 426.7Z" fill="#3595F6" fill-opacity="0.75"/>
    <path d="M220 404.7V379.7L442.2 363.4L512 392V412.7L441.7 391L220 404.7Z" fill="#3595F6" fill-opacity="0.75"/>
    <path d="M220 379.7V354.7L442.5 334.4L512 371V391.7L440 363L220 379.7Z" fill="#3595F6" fill-opacity="0.75"/>
    <path d="M220 353.7V329.7L443 305L512 349V370.7L442.7 332.7L220 353.7Z" fill="#3595F6" fill-opacity="0.75"/>
    <path d="M220 328.7V304.7L442.5 276L512 327V347.7L441.7 305.4L220 328.7Z" fill="#3595F6" fill-opacity="0.75"/>
    <path d="M219 304.7V280.7L441.3 247.7L512 307V326.7L442 276L219 304.7Z" fill="#3595F6" fill-opacity="0.75"/>
    <path d="M220 279.7V255.7L441.2 220.7L511 284.7V305.7L442.3 247.4L220 279.7Z" fill="#3595F6" fill-opacity="0.75"/>
    <path d="M220 255.7V230.7L442.3 192.7L511 263V283.7L442 219.7L220 255.7Z" fill="#3595F6" fill-opacity="0.75"/>
    <path d="M220 229.7V204.7L440.8 161L511 240V262.7L442 189.4L220 229.7Z" fill="#3595F6" fill-opacity="0.75"/>
    <path d="M221 205.7V180.7L441 132.7L511 217.7V240.7L440.3 161.4L221 205.7Z" fill="#3595F6" fill-opacity="0.75"/>
    <path d="M220 180.7V155.7L439.8 103.7L511 196V218.7L441.3 132.4L220 180.7Z" fill="#3595F6" fill-opacity="0.75"/>
    <path d="M220 155.7V129.7L442 73L511 174.7V195.7L441.7 104L220 155.7Z" fill="#3595F6" fill-opacity="0.75"/>
</svg>
